<svg width="24" height="22" viewBox="0 0 24 22" fill="none" xmlns="http://www.w3.org/2000/svg">
<path d="M12 0.0950012C10.5324 0.0950012 9.07912 0.38407 7.72322 0.945704C6.36732 1.50734 5.13531 2.33054 4.09755 3.3683C2.00169 5.46416 0.824249 8.30675 0.824249 11.2707C0.824249 16.2104 4.03169 20.4013 8.46846 21.8877C9.02724 21.9771 9.20606 21.6306 9.20606 21.3289C9.20606 21.0719 9.20606 20.3678 9.20606 19.4402C6.11038 20.1107 5.45101 17.9427 5.45101 17.9427C4.93692 16.6463 4.2105 16.2998 4.2105 16.2998C3.19351 15.6069 4.28873 15.6293 4.28873 15.6293C5.4063 15.7075 5.99862 16.7804 5.99862 16.7804C6.97091 18.4791 8.61374 17.9762 9.25076 17.708C9.35134 16.9815 9.64191 16.4898 9.95483 16.2104C7.47382 15.931 4.86987 14.9699 4.86987 10.712C4.86987 9.47145 5.29455 8.4768 6.02097 7.68333C5.90921 7.40393 5.51806 6.24166 6.13273 4.73293C6.13273 4.73293 7.07149 4.43119 9.20606 5.87286C10.0889 5.62699 11.0501 5.50406 12 5.50406C12.9499 5.50406 13.911 5.62699 14.7939 5.87286C16.9285 4.43119 17.8673 4.73293 17.8673 4.73293C18.4819 6.24166 18.0908 7.40393 17.979 7.68333C18.7054 8.4768 19.1301 9.47145 19.1301 10.712C19.1301 14.9811 16.515 15.9198 14.0228 16.1992C14.4251 16.5457 14.7939 17.2274 14.7939 18.2668V21.3289C14.7939 21.6306 14.9727 21.9883 15.5427 21.8877C19.9795 20.3901 23.1757 16.2104 23.1757 11.2707C23.1757 9.80312 22.8867 8.34987 22.325 6.99397C21.7634 5.63807 20.9402 4.40606 19.9024 3.3683C18.8647 2.33054 17.6327 1.50734 16.2768 0.945704C14.9209 0.38407 13.4676 0.0950012 12 0.0950012Z" fill="white"/>
</svg>
