<svg width="17" height="16" viewBox="0 0 17 16" fill="none" xmlns="http://www.w3.org/2000/svg">
<path fill-rule="evenodd" clip-rule="evenodd" d="M8.5 0C6.81886 0 5.17547 0.469192 3.77766 1.34824C2.37984 2.22729 1.29037 3.47672 0.647028 4.93853C0.0036829 6.40034 -0.164645 8.00887 0.163329 9.56072C0.491303 11.1126 1.30085 12.538 2.4896 13.6569C3.67834 14.7757 5.1929 15.5376 6.84173 15.8463C8.49057 16.155 10.1996 15.9965 11.7528 15.391C13.306 14.7855 14.6335 13.7602 15.5675 12.4446C16.5015 11.129 17 9.58225 17 8C17 5.87827 16.1045 3.84344 14.5104 2.34315C12.9163 0.842855 10.7543 0 8.5 0V0ZM8.1702 11.44H6.8V8.82C6.8 8.3 6.77535 7.9704 6.7235 7.8304C6.6743 7.69336 6.57722 7.57605 6.4481 7.4976C6.3012 7.40944 6.12919 7.36562 5.9551 7.372C5.74059 7.36875 5.52971 7.42435 5.3482 7.532C5.16283 7.64502 5.02422 7.81444 4.9555 8.012C4.8722 8.22533 4.83112 8.54053 4.83225 8.9576V11.4424H3.46715V4.3896H4.8348V7.1096C5.2751 6.6152 5.80154 6.36747 6.4141 6.3664C6.70735 6.3624 6.99781 6.42035 7.2641 6.536C7.49206 6.62827 7.68959 6.77634 7.83615 6.9648C7.96473 7.13929 8.05411 7.33666 8.0988 7.5448C8.15537 7.87023 8.17899 8.19997 8.16935 8.5296L8.1702 11.44ZM13.5558 11.44H12.189V8.82C12.189 8.3 12.1632 7.97013 12.1117 7.8304C12.0624 7.69336 11.9654 7.57605 11.8363 7.4976C11.6891 7.40933 11.5168 7.36551 11.3424 7.372C11.1282 7.36891 10.9176 7.4245 10.7364 7.532C10.5517 7.64573 10.4133 7.81489 10.3437 8.012C10.2621 8.22533 10.221 8.54053 10.2204 8.9576V11.44H8.8536V4.3896H10.2204V7.1096C10.6607 6.6152 11.1871 6.36747 11.7997 6.3664C12.0929 6.3628 12.3833 6.42074 12.6497 6.536C12.877 6.62851 13.074 6.77656 13.2201 6.9648C13.3483 7.13948 13.4376 7.33677 13.4827 7.5448C13.5388 7.87027 13.5625 8.19998 13.5533 8.5296L13.5558 11.44Z" fill="white"/>
</svg>
