<svg width="19" height="10" viewBox="0 0 19 10" fill="none" xmlns="http://www.w3.org/2000/svg">
<path fill-rule="evenodd" clip-rule="evenodd" d="M17.6781 0.677136C17.7972 0.286814 17.6781 0 17.1109 0H15.2355C14.7587 0 14.5388 0.247764 14.4196 0.520972C14.4196 0.520972 13.4658 2.80434 12.1147 4.2875C11.6777 4.71686 11.4789 4.8535 11.2405 4.8535C11.1213 4.8535 10.9424 4.71686 10.9424 4.32657V0.677136C10.9424 0.20875 10.8104 0 10.4129 0H7.46582C7.16782 0 6.9886 0.217386 6.9886 0.423414C6.9886 0.867436 7.66411 0.969836 7.73374 2.21886V4.93157C7.73374 5.52629 7.62439 5.63414 7.38595 5.63414C6.75017 5.63414 5.20363 3.34059 4.28639 0.71615C4.10663 0.20605 3.92634 0 3.44703 0H1.57159C1.03576 0 0.928581 0.247764 0.928581 0.520972C0.928581 1.00889 1.5644 3.42885 3.88904 6.62943C5.43879 8.81514 7.62228 10 9.60915 10C10.8013 10 10.9488 9.73686 10.9488 9.28357V7.63157C10.9488 7.10529 11.0617 7.00021 11.4392 7.00021C11.7174 7.00021 12.1942 7.13686 13.3069 8.19071C14.5785 9.43971 14.7882 10 15.5034 10H17.3789C17.9147 10 18.1826 9.73686 18.028 9.2175C17.8589 8.69993 17.2518 7.949 16.4462 7.05879C16.0091 6.55136 15.3534 6.00493 15.1547 5.73164C14.8765 5.38043 14.956 5.22429 15.1547 4.91207C15.1547 4.91207 17.4397 1.75048 17.6781 0.677136Z" fill="white"/>
</svg>
