<svg width="15" height="10" viewBox="0 0 15 10" fill="none" xmlns="http://www.w3.org/2000/svg">
<path d="M14.682 1.56827C14.5994 1.26899 14.4346 0.995355 14.2041 0.774808C13.9735 0.554261 13.6853 0.394552 13.3683 0.31169C12.1953 0.00305349 7.49547 0.00305341 7.49547 0.00305341C5.53577 -0.0190768 3.5766 0.0791071 1.63051 0.296993C1.31342 0.385908 1.02568 0.549295 0.794444 0.771735C0.563214 0.994168 0.39612 1.26831 0.308938 1.56827C0.0986878 2.70136 -0.00337738 3.84987 0.00395953 4.99998C-0.00388051 6.15016 0.0981888 7.29871 0.308938 8.43176C0.394325 8.7309 0.561059 9.00404 0.792764 9.22441C1.02447 9.44471 1.31317 9.60455 1.63051 9.68831C2.81915 9.99693 7.49547 9.99694 7.49547 9.99694C9.45777 10.0191 11.4196 9.92092 13.3683 9.70299C13.6853 9.62016 13.9735 9.46045 14.2041 9.2399C14.4346 9.01934 14.5994 8.7457 14.682 8.44644C14.8976 7.31388 15.0023 6.16521 14.9948 5.01472C15.011 3.85905 14.9062 2.70467 14.682 1.56827ZM6.00187 7.13843V2.8616L9.91187 4.99998L6.00187 7.13843Z" fill="white"/>
</svg>
